<?xml version="1.0" encoding="utf-8"?>
<!-- Generator: Adobe Illustrator 23.0.3, SVG Export Plug-In . SVG Version: 6.00 Build 0)  -->
<svg version="1.1" id="Layer_1" xmlns="http://www.w3.org/2000/svg" xmlns:xlink="http://www.w3.org/1999/xlink" x="0px" y="0px"
	 viewBox="0 0 595.28 841.89" style="enable-background:new 0 0 595.28 841.89;" xml:space="preserve">
<style type="text/css">
	.st0{fill:#292424;}
	.st1{fill:#FCD441;}
	.st2{fill:#BE3F2A;}
</style>
<g>
	<path class="st0" d="M-134.52,271.65c0.15,15.61,0.3,31.23,0.45,46.84c-9.18,6.98-18.35,13.95-27.53,20.93
		c-0.22-4.9-0.44-9.81-0.7-15.65c-9.14,7.4-17.62,14.23-26.06,21.1c-5.72,4.66-5.7,4.68-11.65,0.23
		c-17.69-13.21-35.35-26.46-53.1-39.58c-2.19-1.62-3.28-3.19-3.2-6.06c0.22-8.43,0.08-16.87,0.08-25.59c2.6,0.1,3.78,1.6,5.14,2.61
		c17.89,13.22,35.75,26.46,53.59,39.75c1.68,1.25,2.93,2.24,5.1,0.5c18.91-15.1,37.91-30.07,56.89-45.09
		C-135.18,271.65-134.85,271.65-134.52,271.65z"/>
	<path class="st1" d="M-161.6,339.43c9.18-6.98,18.35-13.96,27.53-20.93c0.15,8.81,0.26,17.61,0.5,26.41
		c0.06,2.09-0.83,3.39-2.36,4.6c-18.32,14.63-36.65,29.25-54.87,44c-2.5,2.02-4.26,1.61-6.53-0.13
		c-8.71-6.68-17.48-13.26-26.26-19.85c-1.28-0.96-2.31-2.38-4.61-2.56c0,13.59,0,27.1,0,41.82c-9.27-7.08-17.65-13.49-26.05-19.88
		c-1.26-0.96-1.11-2.31-1.11-3.63c0.08-22.29,0.16-44.57,0.25-66.86c0-0.46,0.19-0.91,0.35-1.62c2.2,0.23,3.53,1.82,5.05,2.94
		c17.38,12.85,34.77,25.68,52.05,38.67c2.67,2,4.41,2.4,7.23,0.06C-180.97,354.6-171.23,347.08-161.6,339.43z"/>
	<path class="st2" d="M-160.19,413.38c0-9.75,0.08-18.02-0.05-26.29c-0.04-2.31,0.89-3.6,2.75-4.77
		c7.15-4.49,14.26-9.04,21.29-13.72c2.91-1.94,3.54-1.11,3.47,2.02c-0.14,6.29-0.04,12.59-0.04,18.89c0,1.32,0.23,2.76-0.98,3.68
		C-142.23,399.7-150.73,406.17-160.19,413.38z"/>
</g>
</svg>
